<svg xmlns="http://www.w3.org/2000/svg" viewBox="0 0 1400 1750" width="1400" height="1750" role="img" aria-label="Blackwork — full back">
<defs>
<linearGradient id="base" x1="0" y1="0" x2="0.4" y2="1">
<stop offset="0" stop-color="#1c1d20"/><stop offset="0.5" stop-color="#08080a"/><stop offset="1" stop-color="#08080a"/>
</linearGradient>
<linearGradient id="mass" x1="0" y1="0" x2="0.9" y2="1">
<stop offset="0" stop-color="#8e9095" stop-opacity="0.435"/>
<stop offset="0.45" stop-color="#8e9095" stop-opacity="0.08"/>
<stop offset="1" stop-color="#08080a" stop-opacity="0.75"/>
</linearGradient>
<radialGradient id="key" cx="0.629" cy="0.114" r="0.62">
<stop offset="0" stop-color="#8e9095" stop-opacity="0.320"/>
<stop offset="0.5" stop-color="#8e9095" stop-opacity="0.07"/>
<stop offset="1" stop-color="#8e9095" stop-opacity="0"/>
</radialGradient>
<linearGradient id="shaft" x1="0" y1="0" x2="1" y2="1">
<stop offset="0" stop-color="#e8e6e3" stop-opacity="0.22"/><stop offset="1" stop-color="#e8e6e3" stop-opacity="0"/>
</linearGradient>
<radialGradient id="bok"><stop offset="0" stop-color="#e8e6e3" stop-opacity="0.8"/><stop offset="1" stop-color="#e8e6e3" stop-opacity="0"/></radialGradient>
<radialGradient id="vig" cx="0.5" cy="0.45" r="0.72">
<stop offset="0.35" stop-color="#000" stop-opacity="0"/><stop offset="1" stop-color="#000" stop-opacity="0.68"/>
</radialGradient>
<filter id="soft" x="-30%" y="-30%" width="160%" height="160%"><feGaussianBlur stdDeviation="53"/></filter>
<filter id="grain" x="0" y="0" width="100%" height="100%">
<feTurbulence type="fractalNoise" baseFrequency="0.85" numOctaves="4" seed="2" result="n"/>
<feColorMatrix in="n" type="saturate" values="0"/>
</filter>
</defs>
<rect width="1400" height="1750" fill="url(#base)"/>
<circle cx="742" cy="1446" r="159" fill="url(#bok)" opacity="0.071"/><circle cx="982" cy="178" r="57" fill="url(#bok)" opacity="0.096"/><circle cx="678" cy="1173" r="92" fill="url(#bok)" opacity="0.060"/><circle cx="423" cy="1552" r="78" fill="url(#bok)" opacity="0.112"/><circle cx="425" cy="724" r="175" fill="url(#bok)" opacity="0.107"/><circle cx="676" cy="217" r="74" fill="url(#bok)" opacity="0.128"/>
<path d="M-140 35 L588 -88 L1204 1838 L420 1890 Z"
fill="url(#shaft)" opacity="0.275" filter="url(#soft)"/>
<g transform="rotate(-43.2 482 708)"><ellipse cx="482" cy="708" rx="699" ry="598" fill="url(#mass)" opacity="0.85" filter="url(#soft)"/></g><g transform="rotate(-24.2 945 605)"><ellipse cx="945" cy="605" rx="538" ry="739" fill="url(#mass)" opacity="0.50" filter="url(#soft)"/></g>
<circle cx="581" cy="709" r="654" fill="none" stroke="#e8e6e3"
stroke-opacity="0.250" stroke-width="16.8"
stroke-dasharray="981 2616" filter="url(#soft)"/>
<rect width="1400" height="1750" fill="url(#key)"/>
<rect width="1400" height="1750" fill="url(#vig)"/>
<rect width="1400" height="1750" filter="url(#grain)" opacity="0.2" style="mix-blend-mode:overlay"/>
<rect x="0.5" y="0.5" width="1399" height="1749" fill="none" stroke="#ffffff" stroke-opacity="0.1"/>
<g fill="#ffffff" fill-opacity="0.42" font-family="ui-monospace,SFMono-Regular,Menlo,Consolas,monospace" font-size="34" letter-spacing="6.12">
<text x="63" y="97">BLACKWORK — FULL BACK</text>
<text x="63" y="1687">GADELLA · IMAGE SLOT</text>
<text x="1337" y="1687" text-anchor="end">WK-11</text>
</g>
<g stroke="#ffffff" stroke-opacity="0.2" stroke-width="2.04">
<line x1="666" y1="875" x2="734" y2="875"/>
<line x1="700" y1="841" x2="700" y2="909"/>
</g>
</svg>