<svg xmlns="http://www.w3.org/2000/svg" viewBox="0 0 1400 1750" width="1400" height="1750" role="img" aria-label="Fine line — ankle">
<defs>
<linearGradient id="base" x1="0" y1="0" x2="0.4" y2="1">
<stop offset="0" stop-color="#2c3034"/><stop offset="0.5" stop-color="#101214"/><stop offset="1" stop-color="#101214"/>
</linearGradient>
<linearGradient id="mass" x1="0" y1="0" x2="0.9" y2="1">
<stop offset="0" stop-color="#93989e" stop-opacity="0.518"/>
<stop offset="0.45" stop-color="#93989e" stop-opacity="0.08"/>
<stop offset="1" stop-color="#101214" stop-opacity="0.75"/>
</linearGradient>
<radialGradient id="key" cx="0.615" cy="0.246" r="0.62">
<stop offset="0" stop-color="#93989e" stop-opacity="0.380"/>
<stop offset="0.5" stop-color="#93989e" stop-opacity="0.07"/>
<stop offset="1" stop-color="#93989e" stop-opacity="0"/>
</radialGradient>
<linearGradient id="shaft" x1="0" y1="0" x2="1" y2="1">
<stop offset="0" stop-color="#eceef0" stop-opacity="0.22"/><stop offset="1" stop-color="#eceef0" stop-opacity="0"/>
</linearGradient>
<radialGradient id="bok"><stop offset="0" stop-color="#eceef0" stop-opacity="0.8"/><stop offset="1" stop-color="#eceef0" stop-opacity="0"/></radialGradient>
<radialGradient id="vig" cx="0.5" cy="0.45" r="0.72">
<stop offset="0.35" stop-color="#000" stop-opacity="0"/><stop offset="1" stop-color="#000" stop-opacity="0.68"/>
</radialGradient>
<filter id="soft" x="-30%" y="-30%" width="160%" height="160%"><feGaussianBlur stdDeviation="53"/></filter>
<filter id="grain" x="0" y="0" width="100%" height="100%">
<feTurbulence type="fractalNoise" baseFrequency="0.85" numOctaves="4" seed="32" result="n"/>
<feColorMatrix in="n" type="saturate" values="0"/>
</filter>
</defs>
<rect width="1400" height="1750" fill="url(#base)"/>
<circle cx="707" cy="1131" r="144" fill="url(#bok)" opacity="0.091"/><circle cx="1353" cy="1142" r="185" fill="url(#bok)" opacity="0.104"/><circle cx="349" cy="176" r="57" fill="url(#bok)" opacity="0.085"/><circle cx="428" cy="1343" r="69" fill="url(#bok)" opacity="0.123"/><circle cx="1372" cy="161" r="138" fill="url(#bok)" opacity="0.106"/><circle cx="171" cy="1040" r="73" fill="url(#bok)" opacity="0.069"/>
<path d="M-140 35 L588 -88 L1204 1838 L420 1890 Z"
fill="url(#shaft)" opacity="0.358" filter="url(#soft)"/>
<g transform="rotate(4.9 492 926)"><ellipse cx="492" cy="926" rx="796" ry="913" fill="url(#mass)" opacity="0.85" filter="url(#soft)"/></g><g transform="rotate(-23.5 404 1239)"><ellipse cx="404" cy="1239" rx="495" ry="638" fill="url(#mass)" opacity="0.50" filter="url(#soft)"/></g>
<circle cx="363" cy="1117" r="485" fill="none" stroke="#eceef0"
stroke-opacity="0.295" stroke-width="16.8"
stroke-dasharray="728 1940" filter="url(#soft)"/>
<rect width="1400" height="1750" fill="url(#key)"/>
<rect width="1400" height="1750" fill="url(#vig)"/>
<rect width="1400" height="1750" filter="url(#grain)" opacity="0.2" style="mix-blend-mode:overlay"/>
<rect x="0.5" y="0.5" width="1399" height="1749" fill="none" stroke="#ffffff" stroke-opacity="0.1"/>
<g fill="#ffffff" fill-opacity="0.42" font-family="ui-monospace,SFMono-Regular,Menlo,Consolas,monospace" font-size="34" letter-spacing="6.12">
<text x="63" y="97">FINE LINE — ANKLE</text>
<text x="63" y="1687">GADELLA · IMAGE SLOT</text>
<text x="1337" y="1687" text-anchor="end">WK-12</text>
</g>
<g stroke="#ffffff" stroke-opacity="0.2" stroke-width="2.04">
<line x1="666" y1="875" x2="734" y2="875"/>
<line x1="700" y1="841" x2="700" y2="909"/>
</g>
</svg>