<svg xmlns="http://www.w3.org/2000/svg" viewBox="0 0 1400 1750" width="1400" height="1750" role="img" aria-label="Neo traditional — thigh">
<defs>
<linearGradient id="base" x1="0" y1="0" x2="0.4" y2="1">
<stop offset="0" stop-color="#26272a"/><stop offset="0.5" stop-color="#0e0f10"/><stop offset="1" stop-color="#0e0f10"/>
</linearGradient>
<linearGradient id="mass" x1="0" y1="0" x2="0.9" y2="1">
<stop offset="0" stop-color="#9a9ca1" stop-opacity="0.463"/>
<stop offset="0.45" stop-color="#9a9ca1" stop-opacity="0.08"/>
<stop offset="1" stop-color="#0e0f10" stop-opacity="0.75"/>
</linearGradient>
<radialGradient id="key" cx="0.506" cy="0.128" r="0.62">
<stop offset="0" stop-color="#9a9ca1" stop-opacity="0.340"/>
<stop offset="0.5" stop-color="#9a9ca1" stop-opacity="0.07"/>
<stop offset="1" stop-color="#9a9ca1" stop-opacity="0"/>
</radialGradient>
<linearGradient id="shaft" x1="0" y1="0" x2="1" y2="1">
<stop offset="0" stop-color="#f0eeec" stop-opacity="0.22"/><stop offset="1" stop-color="#f0eeec" stop-opacity="0"/>
</linearGradient>
<radialGradient id="bok"><stop offset="0" stop-color="#f0eeec" stop-opacity="0.8"/><stop offset="1" stop-color="#f0eeec" stop-opacity="0"/></radialGradient>
<radialGradient id="vig" cx="0.5" cy="0.45" r="0.72">
<stop offset="0.35" stop-color="#000" stop-opacity="0"/><stop offset="1" stop-color="#000" stop-opacity="0.68"/>
</radialGradient>
<filter id="soft" x="-30%" y="-30%" width="160%" height="160%"><feGaussianBlur stdDeviation="53"/></filter>
<filter id="grain" x="0" y="0" width="100%" height="100%">
<feTurbulence type="fractalNoise" baseFrequency="0.85" numOctaves="4" seed="39" result="n"/>
<feColorMatrix in="n" type="saturate" values="0"/>
</filter>
</defs>
<rect width="1400" height="1750" fill="url(#base)"/>
<circle cx="973" cy="1682" r="60" fill="url(#bok)" opacity="0.091"/><circle cx="68" cy="870" r="106" fill="url(#bok)" opacity="0.069"/><circle cx="927" cy="1143" r="187" fill="url(#bok)" opacity="0.063"/><circle cx="197" cy="684" r="153" fill="url(#bok)" opacity="0.064"/><circle cx="253" cy="1500" r="107" fill="url(#bok)" opacity="0.115"/><circle cx="1185" cy="1353" r="178" fill="url(#bok)" opacity="0.117"/>
<path d="M-140 35 L588 -88 L1204 1838 L420 1890 Z"
fill="url(#shaft)" opacity="0.303" filter="url(#soft)"/>
<g transform="rotate(7.9 772 962)"><ellipse cx="772" cy="962" rx="735" ry="738" fill="url(#mass)" opacity="0.85" filter="url(#soft)"/></g><g transform="rotate(12.2 685 1289)"><ellipse cx="685" cy="1289" rx="379" ry="274" fill="url(#mass)" opacity="0.50" filter="url(#soft)"/></g>
<circle cx="431" cy="543" r="427" fill="none" stroke="#f0eeec"
stroke-opacity="0.265" stroke-width="16.8"
stroke-dasharray="641 1708" filter="url(#soft)"/>
<rect width="1400" height="1750" fill="url(#key)"/>
<rect width="1400" height="1750" fill="url(#vig)"/>
<rect width="1400" height="1750" filter="url(#grain)" opacity="0.2" style="mix-blend-mode:overlay"/>
<rect x="0.5" y="0.5" width="1399" height="1749" fill="none" stroke="#ffffff" stroke-opacity="0.1"/>
<g fill="#ffffff" fill-opacity="0.42" font-family="ui-monospace,SFMono-Regular,Menlo,Consolas,monospace" font-size="34" letter-spacing="6.12">
<text x="63" y="97">NEO TRADITIONAL — THIGH</text>
<text x="63" y="1687">GADELLA · IMAGE SLOT</text>
<text x="1337" y="1687" text-anchor="end">WK-10</text>
</g>
<g stroke="#ffffff" stroke-opacity="0.2" stroke-width="2.04">
<line x1="666" y1="875" x2="734" y2="875"/>
<line x1="700" y1="841" x2="700" y2="909"/>
</g>
</svg>