<svg xmlns="http://www.w3.org/2000/svg" viewBox="0 0 1400 1750" width="1400" height="1750" role="img" aria-label="Minimal — calf">
<defs>
<linearGradient id="base" x1="0" y1="0" x2="0.4" y2="1">
<stop offset="0" stop-color="#2a2422"/><stop offset="0.5" stop-color="#0f0c0b"/><stop offset="1" stop-color="#0f0c0b"/>
</linearGradient>
<linearGradient id="mass" x1="0" y1="0" x2="0.9" y2="1">
<stop offset="0" stop-color="#a1948b" stop-opacity="0.518"/>
<stop offset="0.45" stop-color="#a1948b" stop-opacity="0.08"/>
<stop offset="1" stop-color="#0f0c0b" stop-opacity="0.75"/>
</linearGradient>
<radialGradient id="key" cx="0.587" cy="0.161" r="0.62">
<stop offset="0" stop-color="#a1948b" stop-opacity="0.380"/>
<stop offset="0.5" stop-color="#a1948b" stop-opacity="0.07"/>
<stop offset="1" stop-color="#a1948b" stop-opacity="0"/>
</radialGradient>
<linearGradient id="shaft" x1="0" y1="0" x2="1" y2="1">
<stop offset="0" stop-color="#f4ece4" stop-opacity="0.22"/><stop offset="1" stop-color="#f4ece4" stop-opacity="0"/>
</linearGradient>
<radialGradient id="bok"><stop offset="0" stop-color="#f4ece4" stop-opacity="0.8"/><stop offset="1" stop-color="#f4ece4" stop-opacity="0"/></radialGradient>
<radialGradient id="vig" cx="0.5" cy="0.45" r="0.72">
<stop offset="0.35" stop-color="#000" stop-opacity="0"/><stop offset="1" stop-color="#000" stop-opacity="0.68"/>
</radialGradient>
<filter id="soft" x="-30%" y="-30%" width="160%" height="160%"><feGaussianBlur stdDeviation="53"/></filter>
<filter id="grain" x="0" y="0" width="100%" height="100%">
<feTurbulence type="fractalNoise" baseFrequency="0.85" numOctaves="4" seed="92" result="n"/>
<feColorMatrix in="n" type="saturate" values="0"/>
</filter>
</defs>
<rect width="1400" height="1750" fill="url(#base)"/>
<circle cx="637" cy="500" r="113" fill="url(#bok)" opacity="0.132"/><circle cx="695" cy="1319" r="161" fill="url(#bok)" opacity="0.118"/><circle cx="1092" cy="1681" r="126" fill="url(#bok)" opacity="0.135"/><circle cx="438" cy="926" r="191" fill="url(#bok)" opacity="0.144"/><circle cx="465" cy="785" r="63" fill="url(#bok)" opacity="0.105"/><circle cx="561" cy="935" r="71" fill="url(#bok)" opacity="0.052"/>
<path d="M-140 35 L588 -88 L1204 1838 L420 1890 Z"
fill="url(#shaft)" opacity="0.358" filter="url(#soft)"/>
<g transform="rotate(11.1 512 629)"><ellipse cx="512" cy="629" rx="711" ry="733" fill="url(#mass)" opacity="0.85" filter="url(#soft)"/></g><g transform="rotate(-21.9 552 1039)"><ellipse cx="552" cy="1039" rx="408" ry="456" fill="url(#mass)" opacity="0.50" filter="url(#soft)"/></g>
<circle cx="628" cy="356" r="653" fill="none" stroke="#f4ece4"
stroke-opacity="0.295" stroke-width="16.8"
stroke-dasharray="980 2612" filter="url(#soft)"/>
<rect width="1400" height="1750" fill="url(#key)"/>
<rect width="1400" height="1750" fill="url(#vig)"/>
<rect width="1400" height="1750" filter="url(#grain)" opacity="0.2" style="mix-blend-mode:overlay"/>
<rect x="0.5" y="0.5" width="1399" height="1749" fill="none" stroke="#ffffff" stroke-opacity="0.1"/>
<g fill="#ffffff" fill-opacity="0.42" font-family="ui-monospace,SFMono-Regular,Menlo,Consolas,monospace" font-size="34" letter-spacing="6.12">
<text x="63" y="97">MINIMAL — CALF</text>
<text x="63" y="1687">GADELLA · IMAGE SLOT</text>
<text x="1337" y="1687" text-anchor="end">WK-04</text>
</g>
<g stroke="#ffffff" stroke-opacity="0.2" stroke-width="2.04">
<line x1="666" y1="875" x2="734" y2="875"/>
<line x1="700" y1="841" x2="700" y2="909"/>
</g>
</svg>